<?xml version="1.0" standalone="no"?>
<!DOCTYPE svg PUBLIC "-//W3C//DTD SVG 20010904//EN"
 "http://www.w3.org/TR/2001/REC-SVG-20010904/DTD/svg10.dtd">
<svg version="1.0" xmlns="http://www.w3.org/2000/svg"
 width="600.000000pt" height="600.000000pt" viewBox="0 0 600.000000 600.000000"
 preserveAspectRatio="xMidYMid meet">
<metadata>
Created by potrace 1.11, written by Peter Selinger 2001-2013
</metadata>
<g transform="translate(0.000000,600.000000) scale(0.100000,-0.100000)"
fill="#000000" stroke="none">
<path d="M1020 4083 l0 -1079 160 0 160 0 0 914 0 914 63 -6 c195 -18 432 -91
625 -192 92 -48 222 -130 274 -173 278 -225 462 -469 581 -767 102 -254 137
-453 132 -739 -4 -169 -4 -171 -36 -334 -20 -100 -73 -272 -98 -319 -6 -12 -9
-22 -7 -22 7 0 -99 -202 -140 -268 -73 -116 -142 -200 -259 -318 -330 -334
-788 -527 -1262 -534 l-33 0 0 -161 0 -161 123 6 c67 4 147 11 177 16 30 5 73
12 95 15 65 9 226 52 316 84 431 150 822 449 1064 811 28 41 52 77 55 80 3 3
11 16 18 29 8 13 23 40 34 60 34 60 95 185 103 209 3 12 9 22 13 22 4 -1 25
-40 47 -88 154 -335 420 -650 735 -868 98 -68 287 -169 405 -217 135 -55 356
-116 480 -132 28 -4 61 -9 75 -11 14 -2 78 -7 143 -10 l117 -7 0 162 0 161
-32 1 c-60 0 -173 8 -203 13 -16 2 -50 7 -75 11 -25 4 -90 18 -145 32 -671
167 -1208 726 -1344 1401 -30 145 -36 211 -36 382 0 198 13 307 56 470 170
642 680 1151 1313 1310 157 40 278 57 419 59 l47 1 0 161 0 161 -117 -6 c-65
-3 -129 -8 -143 -10 -14 -3 -59 -10 -100 -16 -563 -88 -1091 -426 -1422 -910
-84 -123 -208 -349 -208 -380 0 -29 -22 5 -82 128 -135 276 -327 516 -568 711
-92 75 -149 115 -262 184 -200 123 -530 241 -763 272 -27 4 -61 9 -75 11 -14
2 -114 7 -222 10 l-198 7 0 -1080z"/>
</g>
</svg>
